<svg width="31" height="31" viewBox="0 0 31 31" fill="none" xmlns="http://www.w3.org/2000/svg">
<path fill-rule="evenodd" clip-rule="evenodd" d="M15.0153 0.64502C22.9351 0.64502 29.3857 7.09555 29.3857 15.0154C29.3857 22.971 22.9351 29.3857 15.0153 29.3857C7.0955 29.3857 0.609131 22.971 0.609131 15.0154C0.609131 7.09555 7.05966 0.64502 15.0153 0.64502Z" fill="white"/>
<path fill-rule="evenodd" clip-rule="evenodd" d="M14.4855 21.5916C17.4001 22.3779 21.5833 17.0164 29.7441 16.8734C29.7441 16.8734 28.8183 6.61496 23.1264 3.61249C17.4344 0.610014 15.377 0.502783 12.771 1.32489C10.1651 2.14699 3.78731 4.1129 2.31288 8.00897C0.838445 11.905 0.358398 17.0879 0.358398 17.0879C4.54167 16.9806 10.2337 20.4835 14.4855 21.5916Z" fill="#005632"/>
<path fill-rule="evenodd" clip-rule="evenodd" d="M7.41812 12.865C6.91641 12.3275 6.66556 11.3241 5.01709 10.3206C5.05293 10.8224 5.5188 11.1449 5.87716 11.6824C6.73723 12.9725 7.34645 14.9435 6.8089 16.4845C7.34645 16.7353 7.31061 16.6278 7.91983 16.9862L8.09901 14.2626C8.31403 11.7183 9.31744 7.91962 11.2884 6.19948C11.6468 5.94862 12.5785 5.16023 12.8652 4.87354C11.8977 4.94521 9.92666 6.70118 9.13826 7.99129C8.63655 8.77969 8.31403 9.6756 8.06317 10.4998C7.77648 11.2882 7.70481 12.2916 7.41812 12.865Z" fill="#90C53D"/>
<path fill-rule="evenodd" clip-rule="evenodd" d="M7.52568 10.93C8.17074 9.81909 7.99155 8.06311 7.23899 7.31055C6.52227 8.56482 6.41476 10.1416 7.52568 10.93Z" fill="#90C53D"/>
<path fill-rule="evenodd" clip-rule="evenodd" d="M8.49309 8.49356C9.03063 7.66932 9.67569 6.98844 9.03063 5.59082C7.84804 6.34338 7.91971 7.88434 8.49309 8.49356Z" fill="#90C53D"/>
<path fill-rule="evenodd" clip-rule="evenodd" d="M10.1416 6.41488C10.5358 5.76982 11.5393 4.51555 10.8584 3.79883C10.2491 4.40804 9.3174 5.55481 10.1416 6.41488Z" fill="#90C53D"/>
<path fill-rule="evenodd" clip-rule="evenodd" d="M11.79 4.01386C11.4317 4.55141 11.4317 4.69475 11.6109 5.16062C11.9692 4.80226 13.1877 4.01386 12.7576 2.97461C12.3634 3.40464 12.1484 3.47632 11.79 4.01386Z" fill="#90C53D"/>
<path fill-rule="evenodd" clip-rule="evenodd" d="M12.9727 4.83768C13.8327 4.80184 14.2628 4.62266 14.5853 3.69092C13.7252 3.72675 13.6177 3.83426 12.9727 4.83768Z" fill="#90C53D"/>
<path fill-rule="evenodd" clip-rule="evenodd" d="M8.60083 11.8618C9.38923 11.3242 10.6435 11.3601 11.2527 11.8976C10.3926 12.471 9.24588 12.6143 8.60083 11.8618Z" fill="#90C53D"/>
<path fill-rule="evenodd" clip-rule="evenodd" d="M9.28174 9.67595C9.96263 9.0309 11.1811 8.88756 11.8261 9.31759C11.1094 9.99848 10.0343 10.2852 9.28174 9.67595Z" fill="#90C53D"/>
<path fill-rule="evenodd" clip-rule="evenodd" d="M10.2852 7.99114C10.8585 7.27441 12.077 6.98772 12.7579 7.27441C12.1486 8.09865 11.1094 8.52868 10.2852 7.99114Z" fill="#90C53D"/>
<path d="M11.0735 8.27801C10.7868 8.27801 10.536 8.20634 10.2851 8.02716H10.2493L10.2851 7.99132C10.8585 7.2746 12.0769 6.95207 12.7936 7.2746L12.8295 7.31043H12.7936C12.3636 7.84798 11.7186 8.27801 11.0735 8.27801ZM10.3568 7.99132C11.181 8.49303 12.1486 7.99132 12.722 7.31043C12.0052 7.02374 10.8943 7.34627 10.3568 7.99132Z" fill="#90C53D"/>
<path fill-rule="evenodd" clip-rule="evenodd" d="M12.7935 6.37892C12.1843 6.5581 12.0409 6.5581 11.6467 6.23557C12.1126 5.98472 13.1877 5.05298 14.0478 5.69803C13.5461 5.98472 13.4385 6.19974 12.7935 6.37892Z" fill="#90C53D"/>
<path fill-rule="evenodd" clip-rule="evenodd" d="M10.0342 28.5256C10.8584 28.9198 12.5427 29.2782 13.6178 29.314C14.0478 28.8482 14.6571 27.8089 15.0871 27.1997C17.524 23.7594 20.9284 20.8567 24.6912 18.7782C25.7305 18.2048 27.1998 17.5239 28.3824 17.0939C29.1708 16.8072 29.3858 16.9863 29.4216 16.1621C27.594 16.3055 24.6554 17.273 23.1503 17.9181C21.1076 18.7423 19.5666 19.6382 17.9182 20.7133C15.1588 22.5051 11.7185 25.7662 10.0342 28.5256Z" fill="#90C53D"/>
<path fill-rule="evenodd" clip-rule="evenodd" d="M14.4062 29.4218C15.4813 29.4576 16.5206 29.3859 17.524 29.2067C19.1366 28.9201 18.7424 28.9201 19.495 27.845C20.7493 26.089 22.6128 23.903 24.2612 22.5412C25.8022 21.2869 26.3039 20.8211 28.0957 19.6743C28.7408 19.2801 29.1708 19.2084 29.2066 17.4883C26.5906 18.0975 22.1469 21.0002 20.6418 22.2545C18.4557 24.118 17.4165 25.1572 15.6964 27.3791C15.4455 27.7375 14.5854 28.9201 14.4062 29.4218Z" fill="#90C53D"/>
<path fill-rule="evenodd" clip-rule="evenodd" d="M6.52222 26.734C6.91642 27.1282 8.7799 28.2033 9.49663 28.3108C9.92666 27.2357 12.1485 24.8347 12.8652 24.0463C16.4489 20.176 22.1468 17.0941 27.7373 15.8398C26.0888 15.6606 22.3977 16.5565 20.8926 16.9865C18.1332 17.7749 14.9437 19.3159 12.7219 20.9285L10.4642 22.6487C9.63997 23.2221 6.84474 26.0173 6.52222 26.734Z" fill="#90C53D"/>
<path fill-rule="evenodd" clip-rule="evenodd" d="M7.63325 24.333C7.84827 24.1897 9.42506 22.6487 9.53257 22.5054C8.24247 21.1077 3.26122 18.1692 0.752686 17.4883C0.752686 19.6026 1.64859 19.3876 3.97795 21.1436C5.16055 22.0037 7.56158 24.2613 7.63325 24.333Z" fill="#F58220"/>
<path fill-rule="evenodd" clip-rule="evenodd" d="M19.8533 28.5976C23.2936 27.7375 27.7014 23.5805 28.5615 20.2119C26.4471 21.0003 20.57 26.6266 19.8533 28.5976Z" fill="#90C53D"/>
<path fill-rule="evenodd" clip-rule="evenodd" d="M10.1057 22.0393C10.3924 21.8601 11.6825 20.8925 11.9334 20.6416C10.5716 19.1365 3.47603 16.413 0.609131 16.1621C0.609131 17.1297 0.680803 16.628 2.97432 17.6672C4.76614 18.4556 6.34294 19.3157 7.91973 20.4266C8.67229 20.9642 9.38902 21.5734 10.1057 22.0393Z" fill="#F58220"/>
<path fill-rule="evenodd" clip-rule="evenodd" d="M12.5428 20.2118L14.263 19.1009C12.292 17.8108 5.23222 15.5173 2.25781 15.8398C4.69468 16.234 8.09912 17.6675 10.2493 18.8501C11.0019 19.2443 11.9336 19.9251 12.5428 20.2118Z" fill="#F58220"/>
<path fill-rule="evenodd" clip-rule="evenodd" d="M5.94896 26.2681C6.27149 26.053 6.95238 25.1571 7.1674 24.8704C6.52235 24.0462 5.44726 23.1145 4.55135 22.3977C3.83462 21.7885 2.3295 20.6059 1.43359 20.2476C1.5411 21.1435 2.79537 23.0428 3.26124 23.652C3.83462 24.3687 5.23224 25.9097 5.94896 26.2681Z" fill="#F58220"/>
<path fill-rule="evenodd" clip-rule="evenodd" d="M22.3618 13.1521C22.8635 12.6146 23.1501 11.5753 24.8345 10.5361C24.7986 11.0378 24.3327 11.3961 23.9744 11.9337C23.1143 13.2955 22.4693 15.3023 23.0068 16.8791C22.4693 17.1658 22.5051 17.0224 21.86 17.4166L21.6809 14.6214C21.4658 12.0054 20.4266 8.0992 18.4198 6.34322C18.0256 6.09237 17.0938 5.26814 16.8071 4.98145C17.8105 5.05312 19.8174 6.88077 20.6416 8.17087C21.1433 8.95927 21.4658 9.92685 21.7525 10.7511C21.9676 11.5395 22.0751 12.5787 22.3618 13.1521Z" fill="#90C53D"/>
<path fill-rule="evenodd" clip-rule="evenodd" d="M22.2544 11.1811C21.5735 10.0343 21.7885 8.2425 22.5769 7.4541C23.2936 8.74421 23.3653 10.3568 22.2544 11.1811Z" fill="#90C53D"/>
<path fill-rule="evenodd" clip-rule="evenodd" d="M21.2508 8.67236C20.6775 7.81229 20.0324 7.1314 20.7133 5.66211C21.9317 6.45051 21.8242 8.0273 21.2508 8.67236Z" fill="#90C53D"/>
<path fill-rule="evenodd" clip-rule="evenodd" d="M19.5667 6.52219C19.1367 5.8413 18.1333 4.58703 18.8141 3.83447C19.4592 4.47953 20.3909 5.62629 19.5667 6.52219Z" fill="#90C53D"/>
<path fill-rule="evenodd" clip-rule="evenodd" d="M17.8465 4.08515C18.2049 4.65853 18.2049 4.80188 18.0257 5.26775C17.6315 4.87355 16.413 4.08515 16.8431 3.0459C17.2373 3.4401 17.4881 3.47593 17.8465 4.08515Z" fill="#90C53D"/>
<path fill-rule="evenodd" clip-rule="evenodd" d="M16.628 4.90965C15.7321 4.87381 15.302 4.65879 14.9795 3.72705C15.8754 3.76289 15.9829 3.8704 16.628 4.90965Z" fill="#90C53D"/>
<path fill-rule="evenodd" clip-rule="evenodd" d="M21.1076 12.1484C20.3192 11.6108 18.9932 11.6467 18.384 12.1842C19.2799 12.7934 20.4625 12.9368 21.1076 12.1484Z" fill="#90C53D"/>
<path fill-rule="evenodd" clip-rule="evenodd" d="M20.4266 9.89064C19.7457 9.24559 18.4556 9.10224 17.8105 9.49644C18.5631 10.2132 19.674 10.5357 20.4266 9.89064Z" fill="#90C53D"/>
<path fill-rule="evenodd" clip-rule="evenodd" d="M19.3874 8.17082C18.7782 7.41826 17.5597 7.13157 16.843 7.4541C17.4881 8.24249 18.5632 8.70836 19.3874 8.17082Z" fill="#90C53D"/>
<path fill-rule="evenodd" clip-rule="evenodd" d="M16.8072 6.52198C17.4522 6.70116 17.5956 6.70116 17.9898 6.37863C17.5239 6.12778 16.413 5.1602 15.5171 5.84109C16.0188 6.09194 16.1621 6.3428 16.8072 6.52198Z" fill="#90C53D"/>
<path fill-rule="evenodd" clip-rule="evenodd" d="M14.9437 9.96238C14.872 9.96238 14.872 10.0341 14.9437 10.1057L14.8362 9.99822L14.5853 10.1774L14.657 10.2132C14.5853 10.2132 14.5136 10.2132 14.442 10.2491C14.3703 10.2491 14.3703 10.2491 14.3345 10.2849C14.2986 10.3207 14.3345 10.3566 14.3345 10.4283C14.3703 10.4283 14.4778 10.4283 14.5136 10.4283C14.5853 10.4283 14.6211 10.4283 14.6928 10.4641C14.7645 10.4283 14.8362 10.4283 14.9078 10.3924C14.872 10.3566 14.872 10.3566 14.8362 10.3566L14.9437 10.3924C15.0153 10.3924 15.087 10.3924 15.1587 10.3924L15.0512 10.2132C15.1587 10.3207 15.3379 10.3924 15.5529 10.4641L15.8754 10.6791L15.5171 10.2491C15.1229 10.1774 15.0153 10.2849 14.9437 9.96238ZM15.2304 9.89071C15.1587 9.89071 15.1587 9.89071 15.087 9.92655H14.9437C14.9795 10.1057 15.0153 10.1416 15.1945 10.1416C15.1945 10.1416 15.6962 10.1774 15.4095 10.0699C15.3737 10.0341 15.4095 10.0699 15.2662 10.0341C15.2304 10.0341 15.1945 9.96238 15.1587 9.92655L15.2304 9.89071ZM15.6962 10.5716C15.7679 10.6433 15.8396 10.7149 15.8754 10.7866V10.6791L15.6962 10.5716ZM15.4812 9.81904C15.4454 9.81904 15.3737 9.7832 15.3379 9.85487L15.2304 9.96238C15.2662 9.99822 15.302 10.0341 15.302 10.0341C15.4095 10.0699 15.3737 10.0341 15.4454 10.0699C15.5529 10.1774 15.5887 10.0341 15.7321 10.0699C15.8037 10.0699 15.8396 10.1057 15.8396 10.1416L15.8754 10.1774L15.8396 9.96238C15.8396 9.89071 15.8396 9.81904 15.7679 9.7832C15.6962 9.81904 15.5171 9.81904 15.4812 9.81904ZM14.6928 10.4641C14.5495 10.4283 14.4061 10.4283 14.4061 10.4999C14.442 10.5358 14.4778 10.5716 14.5495 10.5716C14.5853 10.4999 14.6211 10.4641 14.6928 10.4641ZM15.6246 10.1416C15.5887 10.1416 15.5529 10.1774 15.5171 10.1774C15.5529 10.1774 15.5887 10.1774 15.6962 10.2849C15.6962 10.3207 15.6962 10.2849 15.7321 10.3207C15.7679 10.3566 15.7679 10.3566 15.8396 10.3566C15.9113 10.3566 15.8754 10.3207 15.8396 10.2132C15.8396 10.1774 15.8037 10.1416 15.7679 10.1416C15.6962 10.1416 15.6962 10.1416 15.6246 10.1416ZM14.3345 10.4641C14.2628 10.4641 14.1553 10.5358 14.3345 10.6791L14.4061 10.7149C14.442 10.6791 14.4778 10.6433 14.5136 10.6074L14.442 10.5358C14.4061 10.5358 14.3703 10.4999 14.3345 10.4641ZM14.1553 10.7866C14.1553 10.8225 14.1553 10.93 14.2628 10.93C14.2628 10.8941 14.2628 10.93 14.2986 10.8941C14.2986 10.8583 14.3345 10.7866 14.3703 10.7508L14.3345 10.7149L14.2628 10.6433V10.6791C14.1911 10.7149 14.1553 10.7508 14.1553 10.7866Z" fill="white"/>
<path fill-rule="evenodd" clip-rule="evenodd" d="M14.8362 9.53227C14.7645 9.49644 14.7287 9.56811 14.7645 9.67562L14.6928 9.53227L14.4061 9.60394L14.4778 9.67562C14.4061 9.63978 14.3345 9.63978 14.2628 9.60394C14.1911 9.60394 14.1911 9.56811 14.1553 9.60394C14.1195 9.63978 14.1195 9.67562 14.1195 9.71145C14.1553 9.74729 14.2628 9.74729 14.2986 9.78313C14.3345 9.78313 14.4061 9.81896 14.4778 9.89063C14.5495 9.89063 14.6212 9.89063 14.7287 9.92647C14.7287 9.89063 14.6928 9.89063 14.6928 9.8548L14.7645 9.92647C14.8362 9.96231 14.9078 9.96231 14.9437 9.99814L14.8362 9.78313C14.9078 9.92647 15.0512 10.0698 15.1945 10.2132L15.4454 10.5357L15.302 9.99814C14.9437 9.78313 14.8003 9.8548 14.8362 9.53227ZM15.1587 9.56811C15.087 9.53227 15.087 9.53227 14.9795 9.56811L14.8362 9.53227C14.8003 9.71145 14.8362 9.74729 14.9795 9.81896C14.9795 9.8548 15.4454 10.034 15.1945 9.8548C15.1587 9.78312 15.1945 9.8548 15.087 9.78313C15.0512 9.74729 15.0512 9.71145 15.0154 9.63978L15.1587 9.56811ZM15.302 10.3565C15.3379 10.4282 15.3737 10.5357 15.3737 10.6074L15.4096 10.5357L15.302 10.3565ZM15.4096 9.60394C15.3737 9.56811 15.3379 9.56811 15.2304 9.56811L15.087 9.63978C15.087 9.67562 15.1229 9.71145 15.1229 9.74729C15.2304 9.81896 15.1945 9.78313 15.2304 9.81896C15.302 9.92647 15.3737 9.8548 15.5171 9.92647C15.5887 9.96231 15.5887 9.99814 15.5887 10.034L15.6246 10.0698L15.6604 9.8548C15.6962 9.78312 15.6962 9.74729 15.6604 9.67562C15.6246 9.67562 15.4454 9.63978 15.4096 9.60394ZM14.4061 9.8548C14.2628 9.78312 14.1553 9.71145 14.1195 9.74729C14.1553 9.78312 14.1911 9.81896 14.227 9.8548C14.2628 9.89063 14.3345 9.89063 14.4061 9.8548ZM15.4096 9.96231C15.3737 9.96231 15.3379 9.96231 15.302 9.96231C15.302 9.99814 15.3737 9.99814 15.4096 10.1057C15.4096 10.1415 15.4096 10.1057 15.4096 10.1415C15.4096 10.1773 15.4096 10.1773 15.4812 10.2132C15.5529 10.2132 15.5171 10.1773 15.5171 10.0698C15.5171 10.034 15.4812 9.99814 15.4812 9.96231C15.4812 9.96231 15.4812 9.96231 15.4096 9.96231ZM14.0836 9.74729C14.0119 9.74729 13.8686 9.74729 13.9761 9.92647L14.0119 9.96231C14.0478 9.92647 14.1195 9.92647 14.1553 9.89063L14.1195 9.8548C14.1195 9.81896 14.0836 9.78312 14.0836 9.74729ZM13.7611 9.96231C13.7253 9.99814 13.7253 10.0698 13.7969 10.1057C13.8328 10.0698 13.7969 10.1057 13.8328 10.1057C13.8686 10.0698 13.9044 10.034 13.9403 9.99814L13.9044 9.96231L13.8328 9.8548L13.7969 9.89063C13.8328 9.89063 13.7969 9.92647 13.7611 9.96231Z" fill="white"/>
<path fill-rule="evenodd" clip-rule="evenodd" d="M16.0189 13.6176C15.9831 13.7251 15.8756 13.7251 15.7681 13.6176L15.9114 13.7968L15.6247 14.0835L15.5889 13.976C15.5889 14.0835 15.5531 14.1552 15.5172 14.2985C15.4814 14.406 15.4814 14.406 15.4097 14.4419C15.338 14.4777 15.2664 14.4419 15.1947 14.406C15.1947 14.3344 15.2305 14.191 15.2664 14.1193C15.2664 14.0477 15.2664 13.9402 15.2664 13.8327C15.338 13.7251 15.3739 13.6176 15.4097 13.5101C15.4455 13.546 15.4455 13.5818 15.4814 13.6176L15.4097 13.4385C15.4455 13.3309 15.4455 13.2593 15.4455 13.1518L15.6606 13.4385C14.2271 11.2524 15.9831 13.6176 16.0189 13.6176ZM16.1623 13.1876V13.2234C16.1623 13.2951 16.1623 13.2951 16.0548 13.4026L16.0189 13.5818C15.7681 13.5101 15.6964 13.4385 15.6964 13.2234C15.6606 13.1876 15.7681 12.5067 15.8397 12.9367C15.9114 13.0084 15.8397 12.9726 15.8756 13.1159C15.8756 13.1518 15.9473 13.2234 16.0189 13.2951L16.1623 13.1876ZM16.3414 12.8651C16.3414 12.9367 16.3415 13.0084 16.2698 13.0801L16.0548 13.2234C16.0189 13.1518 15.9473 13.1518 15.9473 13.0801C15.9114 12.9009 15.9831 12.9726 15.9114 12.9009C15.8039 12.7576 15.9831 12.6859 15.9831 12.4709C15.9831 12.3634 15.9473 12.3275 15.9114 12.2917L15.8756 12.2559L16.1981 12.3275C16.3056 12.3634 16.4131 12.3634 16.449 12.435C16.4131 12.5425 16.3414 12.7576 16.3414 12.8651ZM15.1947 13.9043C15.1947 14.1193 15.1947 14.2985 15.123 14.3344C15.0513 14.2627 15.0513 14.191 15.0155 14.1193C15.0872 14.0835 15.1589 14.0118 15.1947 13.9043ZM15.0872 14.406C15.0513 14.4777 14.908 14.6569 14.7647 14.406L14.7288 14.3344C14.8005 14.2985 14.8722 14.2627 14.9438 14.191L14.9797 14.2627C15.0155 14.3344 15.0513 14.3702 15.0872 14.406ZM14.5855 14.6211C14.5138 14.6211 14.3705 14.5852 14.4063 14.4777C14.4421 14.4777 14.4421 14.4777 14.478 14.4419C14.5496 14.406 14.6213 14.406 14.693 14.3702L14.7288 14.4419L14.8005 14.5852L14.7647 14.6211C14.7288 14.5852 14.6213 14.6211 14.5855 14.6211Z" fill="white"/>
<path fill-rule="evenodd" clip-rule="evenodd" d="M13.797 13.5106C13.8328 13.6181 13.9403 13.6181 14.0478 13.5106L13.9045 13.6898L14.1912 13.9765L14.227 13.869C14.227 13.9765 14.2629 14.0481 14.2987 14.1915C14.3345 14.299 14.3345 14.299 14.4062 14.3348C14.4779 14.3707 14.5495 14.3348 14.6212 14.299C14.6212 14.2273 14.5854 14.084 14.5495 14.0123C14.5495 13.9406 14.5495 13.8331 14.5495 13.7256C14.4779 13.6181 14.442 13.5106 14.4062 13.4031C14.3704 13.4389 14.3704 13.4748 14.3345 13.5106L14.3704 13.3314C14.3345 13.2239 14.3345 13.1522 14.3345 13.0447L14.1195 13.3314C14.227 13.1522 14.3704 12.8655 14.4062 12.6147L14.6571 12.113L14.0478 12.6505C14.0837 13.2239 14.2987 13.3673 13.797 13.5106ZM13.6536 13.0806V13.1164C13.6536 13.1881 13.6536 13.1881 13.7611 13.2956L13.797 13.4748C14.0478 13.4031 14.1195 13.3314 14.1195 13.1164C14.1553 13.0806 14.0478 12.3997 13.9762 12.8297C13.9045 12.9014 13.9762 12.8655 13.9403 13.0089C13.9403 13.0447 13.8687 13.1164 13.797 13.1881L13.6536 13.0806ZM14.6212 12.3638C14.6929 12.2563 14.8004 12.1488 14.9079 12.0771L14.7646 12.113L14.6212 12.3638ZM13.4745 12.758C13.4745 12.8297 13.4745 12.9014 13.5461 12.9731L13.7611 13.1164C13.797 13.0447 13.8687 13.0447 13.8687 12.9731C13.9045 12.7939 13.8328 12.8655 13.9045 12.7939C14.012 12.6505 13.8328 12.5789 13.8328 12.3638C13.8328 12.2563 13.8687 12.2205 13.9045 12.1847L13.9403 12.1488L13.6178 12.2205C13.5103 12.2563 13.4028 12.2563 13.3669 12.328C13.4028 12.4355 13.4745 12.6505 13.4745 12.758ZM14.6212 13.7973C14.6212 14.0123 14.6212 14.1915 14.6929 14.2273C14.7287 14.1557 14.7646 14.084 14.8004 14.0123C14.7287 13.9765 14.657 13.9048 14.6212 13.7973ZM14.6929 14.299C14.7287 14.3707 14.8721 14.5499 15.0154 14.299L15.0512 14.2273C14.9796 14.1915 14.9079 14.1557 14.8362 14.084L14.8004 14.1557C14.7646 14.1915 14.7646 14.2632 14.6929 14.299ZM15.1946 14.514C15.2663 14.514 15.4096 14.4782 15.3738 14.3707C15.3379 14.3707 15.3379 14.3707 15.3021 14.3348C15.2304 14.299 15.1588 14.299 15.0871 14.2632L15.0512 14.3348L14.9796 14.4782L15.0154 14.514C15.0871 14.4782 15.1588 14.514 15.1946 14.514Z" fill="white"/>
<path fill-rule="evenodd" clip-rule="evenodd" d="M14.3705 10.1056C14.478 10.1414 14.4421 10.2131 14.3346 10.2848L14.478 10.2131L14.693 10.464H14.6213C14.693 10.464 14.7647 10.4998 14.8722 10.5356C14.9439 10.5715 14.9439 10.5715 14.9797 10.6073C14.9797 10.6432 14.9797 10.7148 14.9439 10.7507C14.8722 10.7507 14.8005 10.7148 14.7288 10.679C14.6572 10.679 14.5855 10.6432 14.5138 10.6432C14.4421 10.6073 14.3705 10.5356 14.263 10.5356C14.2988 10.5356 14.2988 10.4998 14.3346 10.4998L14.1913 10.5356C14.1196 10.4998 14.0479 10.4998 13.9763 10.4998L14.2271 10.3565C12.6862 11.0732 14.3705 10.1056 14.3705 10.1056ZM14.0479 9.92643C14.1555 9.96226 14.1555 9.92643 14.1913 9.9981L14.3346 10.0339C14.2271 10.2131 14.1913 10.249 14.0121 10.249C14.0121 10.249 13.4029 10.1773 13.9404 10.1056C13.9763 10.1056 14.0479 10.0698 14.0838 10.0339L14.0479 9.92643ZM13.7971 9.78308C13.8688 9.78308 13.9046 9.78308 13.9763 9.85475L14.0838 10.0339C14.0479 10.0698 14.0121 10.1056 13.9763 10.1056C13.6896 10.1773 14.4063 12.0049 13.5462 10.5715C13.152 9.96226 13.5821 9.78308 14.0121 9.53223C14.0479 9.6039 13.7254 9.78308 13.7971 9.78308ZM14.5497 10.7148C14.7288 10.7148 14.8722 10.7507 14.8722 10.8223C14.8363 10.8582 14.7647 10.8582 14.693 10.894C14.6572 10.8223 14.5855 10.7507 14.5497 10.7148ZM14.908 10.8223C14.9797 10.8582 15.0872 10.9657 14.8722 11.0732L14.8005 11.109C14.7647 11.0373 14.7288 11.0015 14.693 10.9298L14.7647 10.894C14.8363 10.8582 14.8722 10.8582 14.908 10.8223ZM15.0514 11.2165C15.0514 11.2882 15.0155 11.3599 14.908 11.324C14.908 11.2882 14.908 11.2882 14.8722 11.2882C14.8722 11.2165 14.8363 11.1807 14.8363 11.109H14.8722L14.9797 11.0732V11.109C15.0155 11.109 15.0514 11.1807 15.0514 11.2165Z" fill="white"/>
<path fill-rule="evenodd" clip-rule="evenodd" d="M16.198 9.49657C15.9113 8.45732 14.0478 8.85152 13.4744 9.4249C12.9727 9.96244 13.3311 10.285 13.5103 10.8225C13.5103 10.8225 13.8686 10.6792 13.8686 10.6433C13.8686 10.6075 14.9079 10.7867 15.4096 10.4641C15.9113 10.1416 16.2696 10.07 16.2696 10.07C16.2696 10.07 16.4488 9.78326 16.198 9.49657Z" fill="#FFFDF8"/>
<path fill-rule="evenodd" clip-rule="evenodd" d="M13.4385 10.5356C14.8719 10.7507 16.3054 10.1773 16.1262 9.53223L16.2695 10.1056C16.0187 10.7865 15.4095 11.1807 13.761 11.0374C13.4743 10.8582 13.5101 10.7148 13.4385 10.5356Z" fill="#FFFDF8"/>
<path fill-rule="evenodd" clip-rule="evenodd" d="M13.6177 10.6076C14.657 10.8585 15.7679 10.1417 16.2338 9.56836C16.5921 9.74754 16.4129 10.1417 16.3413 10.1417C15.9829 11.0376 14.5495 11.181 13.6535 10.9301C13.4744 10.7151 13.6535 10.6434 13.6177 10.6076Z" fill="#FFFDF8"/>
<path fill-rule="evenodd" clip-rule="evenodd" d="M15.2664 11.145C15.2664 11.145 15.7681 10.5716 15.7681 10.5C15.7681 10.3208 15.9472 10.5 16.0906 10.7867C16.449 11.6109 15.9472 10.8583 15.9114 11.0375C15.6964 10.8583 15.338 11.5751 15.2664 11.145Z" fill="#FFFDF8"/>
<path fill-rule="evenodd" clip-rule="evenodd" d="M14.4779 11.0376C14.4779 11.0376 13.9404 10.4642 13.9404 10.3925C13.9045 10.2134 13.7612 10.3925 13.6537 10.6792C13.3311 11.5035 13.797 10.7509 13.8328 10.9301C14.0479 10.7151 14.4421 11.4318 14.4779 11.0376Z" fill="#FFFDF8"/>
<path fill-rule="evenodd" clip-rule="evenodd" d="M6.37878 10.2136C9.20985 11.8979 9.17401 11.8979 10.715 13.9764C11.0733 14.4781 11.2884 15.0156 11.3959 15.1231C12.3634 16.7716 11.575 21.1078 11.36 23.0788C11.5034 23.0788 11.9692 22.7204 12.0051 22.7921C12.0051 22.7921 11.8976 24.6197 11.8976 25.7665C11.8976 27.0924 12.8293 28.8484 13.0802 30.4252L14.5853 30.5686L14.9078 26.4474L15.0512 9.42515C14.3344 9.35348 12.7935 9.1743 13.331 10.5002C13.3669 10.6078 13.5102 10.9303 13.6535 10.8944C13.3669 11.7903 15.0153 12.4354 13.7969 12.4712C13.4385 12.7579 12.7218 12.6863 12.3634 12.5429C11.2167 12.077 7.34636 8.99512 6.91633 9.53266C6.84465 9.5685 6.34295 10.2136 6.37878 10.2136Z" fill="white"/>
<path fill-rule="evenodd" clip-rule="evenodd" d="M23.4011 10.2134C20.5701 11.8977 20.6059 11.8977 19.0649 13.9762C18.7066 14.4779 18.4916 15.0155 18.3841 15.123C17.4165 16.7715 18.2049 21.1076 18.4199 23.0786C18.2766 23.0786 17.8107 22.7203 17.7748 22.792C17.7748 22.792 17.8824 24.6196 17.8824 25.7664C17.8824 27.0923 16.9506 28.8483 16.6998 30.4251L15.1946 30.5684L14.8721 26.4473L14.7288 9.46086C16.5564 9.24584 16.6998 10.6793 16.1264 10.9301C16.4131 11.8261 14.7646 12.4353 15.983 12.4711C16.3414 12.7578 17.0581 12.6861 17.4165 12.5428C18.5632 12.0769 22.4336 8.99499 22.8636 9.53253C22.8994 9.56837 23.4011 10.2134 23.4011 10.2134Z" fill="white"/>
<path fill-rule="evenodd" clip-rule="evenodd" d="M14.0477 9.38897C14.0477 9.38897 13.6894 9.92652 13.6894 9.99819C13.6894 10.0699 13.2952 9.60399 13.2593 9.49648C13.2235 9.35314 13.1877 9.28147 13.1877 9.24563C13.1877 9.20979 13.1518 9.06645 13.2235 9.13812C13.2952 9.17396 13.3669 9.28146 13.4027 9.28146C13.546 9.38897 13.4027 9.17396 13.4027 8.99477C13.4027 8.42139 13.9044 9.20979 14.0477 9.38897Z" fill="#FFFDF8"/>
<path fill-rule="evenodd" clip-rule="evenodd" d="M22.1467 9.60412C22.1467 9.60412 22.8276 9.60412 22.8635 9.42493C22.8635 9.24575 22.9351 9.10241 23.0068 8.9949C23.0785 8.88739 23.1501 8.85155 23.2577 8.70821C23.3293 8.63654 23.401 8.6007 23.4727 8.49319C23.5085 8.42152 23.5085 8.38568 23.5443 8.42152C23.7235 8.56486 23.401 8.88739 23.3652 8.95906C23.3652 8.95906 23.5085 8.85155 23.616 8.74405C23.7952 8.6007 23.9385 8.42152 24.1177 8.31401C24.1894 8.27817 24.2611 8.34985 24.2252 8.45736C24.046 8.70821 23.9027 8.88739 23.7235 9.10241C23.7235 9.10241 23.9744 8.92323 24.0819 8.81572C24.1536 8.74405 24.2969 8.6007 24.3686 8.52903C24.4402 8.45736 24.5119 8.52903 24.5119 8.6007C24.4761 8.74404 24.0461 9.20992 23.9385 9.31743C23.9385 9.31743 24.0102 9.28159 24.1177 9.20992C24.2611 9.10241 24.3686 8.95906 24.5119 8.88739C24.5836 8.85155 24.6553 8.95906 24.5836 9.03074C24.3686 9.28159 24.1894 9.42493 23.9385 9.60412C23.9385 9.60412 24.0819 9.53244 24.1894 9.46077C24.2252 9.42493 24.2969 9.3891 24.3327 9.3891C24.6194 9.28159 24.3686 9.63995 23.9385 9.85497C23.7594 9.92664 23.5802 9.99832 23.4368 10.07C23.2218 10.1775 22.9351 10.4283 22.7201 10.5717L22.1467 9.60412Z" fill="white"/>
<path fill-rule="evenodd" clip-rule="evenodd" d="M7.59741 9.64025C7.59741 9.64025 6.91652 9.64025 6.88069 9.46107C6.88069 9.28189 6.80902 9.13854 6.73734 9.03103C6.66567 8.92352 6.594 8.88769 6.48649 8.74434C6.41482 8.67267 6.34314 8.63683 6.27147 8.52932C6.23564 8.45765 6.23564 8.42182 6.1998 8.45765C6.02062 8.601 6.34314 8.92352 6.37898 8.9952C6.37898 8.9952 6.23564 8.88769 6.12813 8.78018C5.94895 8.63683 5.8056 8.45765 5.62642 8.35014C5.55475 8.31431 5.48307 8.38598 5.51891 8.49349C5.69809 8.74434 5.84144 8.92352 6.02062 9.13854C6.02062 9.13854 5.76976 8.95936 5.66225 8.85185C5.59058 8.78018 5.44724 8.63683 5.37556 8.56516C5.30389 8.49349 5.23222 8.56516 5.23222 8.63683C5.26806 8.78018 5.69809 9.24605 5.8056 9.35356C5.8056 9.35356 5.73393 9.31772 5.62642 9.24605C5.48307 9.13854 5.37556 8.9952 5.23222 8.92352C5.16055 8.88769 5.08887 8.9952 5.16055 9.06687C5.37556 9.31772 5.55475 9.46107 5.8056 9.64025C5.8056 9.64025 5.66226 9.56858 5.55475 9.4969C5.51891 9.46107 5.44724 9.42523 5.4114 9.42523C5.12471 9.31772 5.37557 9.67608 5.8056 9.8911C5.98478 9.96278 6.16396 10.0344 6.30731 10.1061C6.52233 10.2136 6.80902 10.4645 7.02403 10.6078L7.59741 9.64025Z" fill="white"/>
<path fill-rule="evenodd" clip-rule="evenodd" d="M15.9471 12.4351H15.8754L14.8362 13.761L15.9471 12.4351Z" fill="#005632"/>
<path fill-rule="evenodd" clip-rule="evenodd" d="M13.8687 12.4351H13.9403L14.8362 13.761L13.8687 12.4351Z" fill="#005632"/>
<path fill-rule="evenodd" clip-rule="evenodd" d="M16.2696 10.1417C15.4095 10.4284 14.2627 10.07 13.7969 9.38916V10.0342C14.3703 10.8226 15.3737 11.2526 16.0904 10.9301C16.4488 10.6793 16.3771 10.1059 16.2696 10.1417Z" fill="#FFFDF8"/>
<path fill-rule="evenodd" clip-rule="evenodd" d="M16.6279 9.46073V9.38906C15.4811 9.81909 14.4419 9.67575 13.4385 9.31738C14.4419 9.74742 15.4811 9.96244 16.6279 9.46073Z" fill="#005632"/>
<path fill-rule="evenodd" clip-rule="evenodd" d="M16.4489 10.1416L16.4848 10.07C15.2663 10.2133 14.1554 9.99829 13.0803 9.49658C14.1554 10.1058 15.2305 10.3208 16.4489 10.1416Z" fill="#005632"/>
<path fill-rule="evenodd" clip-rule="evenodd" d="M14.0837 10.3923L14.012 10.3564C13.8687 10.5715 13.6537 10.8223 13.4028 11.0015C13.6895 10.8223 13.7612 10.7506 14.0837 10.3923Z" fill="#005632"/>
<path fill-rule="evenodd" clip-rule="evenodd" d="M16.198 11.0017L16.1263 10.8941C14.9796 10.9658 13.6178 10.1774 13.1877 9.9624C13.6536 10.2491 14.9079 10.9658 16.198 11.0017Z" fill="#005632"/>
<path d="M15.0154 30.0666C6.73722 30.0666 0 23.3294 0 15.0512C0 6.77306 6.70138 0 15.0154 0C23.2936 0 30.0308 6.73722 30.0308 15.0154C30.0308 23.2936 23.2936 30.0666 15.0154 30.0666ZM15.0154 1.29011C7.45395 1.29011 1.29011 7.45395 1.29011 15.0154C1.29011 22.5769 7.45395 28.7407 15.0154 28.7407C22.5769 28.7407 28.7407 22.5769 28.7407 15.0154C28.7407 7.45395 22.5769 1.29011 15.0154 1.29011Z" fill="#F58220"/>
</svg>
